<mxfile host="Electron" modified="2023-05-10T13:01:18.817Z" agent="Mozilla/5.0 (Windows NT 10.0; Win64; x64) AppleWebKit/537.36 (KHTML, like Gecko) draw.io/21.2.8 Chrome/112.0.5615.165 Electron/24.2.0 Safari/537.36" etag="Zy6myeHkF8Ve3MgdMW3l" version="21.2.8" type="device">
  <diagram name="Page-1" id="3ajn1NIfPJX1zAXt36Fe">
    <mxGraphModel dx="1122" dy="669" grid="1" gridSize="10" guides="1" tooltips="1" connect="1" arrows="1" fold="1" page="1" pageScale="1" pageWidth="850" pageHeight="1100" math="0" shadow="0">
      <root>
        <mxCell id="0" />
        <mxCell id="1" parent="0" />
        <mxCell id="gos5kq8PLLieSGs7NMwo-5" value="" style="edgeStyle=orthogonalEdgeStyle;rounded=0;orthogonalLoop=1;jettySize=auto;html=1;" edge="1" parent="1" source="gos5kq8PLLieSGs7NMwo-1" target="gos5kq8PLLieSGs7NMwo-4">
          <mxGeometry relative="1" as="geometry" />
        </mxCell>
        <mxCell id="gos5kq8PLLieSGs7NMwo-1" value="char name[100];" style="rounded=1;whiteSpace=wrap;html=1;absoluteArcSize=1;arcSize=14;strokeWidth=2;" vertex="1" parent="1">
          <mxGeometry x="260" y="170" width="100" height="100" as="geometry" />
        </mxCell>
        <mxCell id="gos5kq8PLLieSGs7NMwo-3" value="" style="edgeStyle=orthogonalEdgeStyle;rounded=0;orthogonalLoop=1;jettySize=auto;html=1;" edge="1" parent="1" source="gos5kq8PLLieSGs7NMwo-2" target="gos5kq8PLLieSGs7NMwo-1">
          <mxGeometry relative="1" as="geometry" />
        </mxCell>
        <mxCell id="gos5kq8PLLieSGs7NMwo-2" value="START" style="strokeWidth=2;html=1;shape=mxgraph.flowchart.start_2;whiteSpace=wrap;" vertex="1" parent="1">
          <mxGeometry x="260" y="30" width="100" height="100" as="geometry" />
        </mxCell>
        <mxCell id="gos5kq8PLLieSGs7NMwo-7" value="" style="edgeStyle=orthogonalEdgeStyle;rounded=0;orthogonalLoop=1;jettySize=auto;html=1;" edge="1" parent="1" source="gos5kq8PLLieSGs7NMwo-4" target="gos5kq8PLLieSGs7NMwo-6">
          <mxGeometry relative="1" as="geometry" />
        </mxCell>
        <mxCell id="gos5kq8PLLieSGs7NMwo-4" value="app intro" style="rounded=1;whiteSpace=wrap;html=1;absoluteArcSize=1;arcSize=14;strokeWidth=2;" vertex="1" parent="1">
          <mxGeometry x="260" y="330" width="100" height="100" as="geometry" />
        </mxCell>
        <mxCell id="gos5kq8PLLieSGs7NMwo-9" value="" style="edgeStyle=orthogonalEdgeStyle;rounded=0;orthogonalLoop=1;jettySize=auto;html=1;" edge="1" parent="1" source="gos5kq8PLLieSGs7NMwo-6" target="gos5kq8PLLieSGs7NMwo-8">
          <mxGeometry relative="1" as="geometry" />
        </mxCell>
        <mxCell id="gos5kq8PLLieSGs7NMwo-6" value="personalization" style="rounded=1;whiteSpace=wrap;html=1;absoluteArcSize=1;arcSize=14;strokeWidth=2;" vertex="1" parent="1">
          <mxGeometry x="260" y="500" width="100" height="100" as="geometry" />
        </mxCell>
        <mxCell id="gos5kq8PLLieSGs7NMwo-11" value="" style="edgeStyle=orthogonalEdgeStyle;rounded=0;orthogonalLoop=1;jettySize=auto;html=1;" edge="1" parent="1" source="gos5kq8PLLieSGs7NMwo-8" target="gos5kq8PLLieSGs7NMwo-10">
          <mxGeometry relative="1" as="geometry" />
        </mxCell>
        <mxCell id="gos5kq8PLLieSGs7NMwo-8" value="your input: name[]" style="rounded=1;whiteSpace=wrap;html=1;absoluteArcSize=1;arcSize=14;strokeWidth=2;" vertex="1" parent="1">
          <mxGeometry x="260" y="680" width="100" height="100" as="geometry" />
        </mxCell>
        <mxCell id="gos5kq8PLLieSGs7NMwo-14" style="edgeStyle=orthogonalEdgeStyle;rounded=0;orthogonalLoop=1;jettySize=auto;html=1;" edge="1" parent="1" source="gos5kq8PLLieSGs7NMwo-10">
          <mxGeometry relative="1" as="geometry">
            <mxPoint x="310" y="650" as="targetPoint" />
            <Array as="points">
              <mxPoint x="161" y="960" />
            </Array>
          </mxGeometry>
        </mxCell>
        <mxCell id="gos5kq8PLLieSGs7NMwo-15" value="False" style="edgeLabel;html=1;align=center;verticalAlign=middle;resizable=0;points=[];" vertex="1" connectable="0" parent="gos5kq8PLLieSGs7NMwo-14">
          <mxGeometry x="-0.7926" y="-2" relative="1" as="geometry">
            <mxPoint as="offset" />
          </mxGeometry>
        </mxCell>
        <mxCell id="gos5kq8PLLieSGs7NMwo-16" style="edgeStyle=orthogonalEdgeStyle;rounded=0;orthogonalLoop=1;jettySize=auto;html=1;" edge="1" parent="1" source="gos5kq8PLLieSGs7NMwo-10">
          <mxGeometry relative="1" as="geometry">
            <mxPoint x="520" y="40" as="targetPoint" />
            <Array as="points">
              <mxPoint x="461" y="960" />
            </Array>
          </mxGeometry>
        </mxCell>
        <mxCell id="gos5kq8PLLieSGs7NMwo-17" value="True" style="edgeLabel;html=1;align=center;verticalAlign=middle;resizable=0;points=[];" vertex="1" connectable="0" parent="gos5kq8PLLieSGs7NMwo-16">
          <mxGeometry x="-0.9647" y="-4" relative="1" as="geometry">
            <mxPoint x="1" y="1" as="offset" />
          </mxGeometry>
        </mxCell>
        <mxCell id="gos5kq8PLLieSGs7NMwo-10" value="are you satisfied with your input?" style="rhombus;whiteSpace=wrap;html=1;rounded=1;arcSize=14;strokeWidth=2;" vertex="1" parent="1">
          <mxGeometry x="227.5" y="880" width="165" height="160" as="geometry" />
        </mxCell>
      </root>
    </mxGraphModel>
  </diagram>
</mxfile>
